<svg width="57" height="45" viewBox="0 0 57 45" fill="none" xmlns="http://www.w3.org/2000/svg">
<path d="M17.8571 3.10714H55.7857M17.8571 22.0714H55.7857M17.8571 41.0357H55.7857M3.10714 5.21429C3.66599 5.21429 4.20195 4.99228 4.59712 4.59712C4.99228 4.20195 5.21429 3.66599 5.21429 3.10714C5.21429 2.54829 4.99228 2.01233 4.59712 1.61717C4.20195 1.222 3.66599 1 3.10714 1C2.54829 1 2.01233 1.222 1.61717 1.61717C1.222 2.01233 1 2.54829 1 3.10714C1 3.66599 1.222 4.20195 1.61717 4.59712C2.01233 4.99228 2.54829 5.21429 3.10714 5.21429ZM3.10714 24.1786C3.66599 24.1786 4.20195 23.9566 4.59712 23.5614C4.99228 23.1662 5.21429 22.6303 5.21429 22.0714C5.21429 21.5126 4.99228 20.9766 4.59712 20.5815C4.20195 20.1863 3.66599 19.9643 3.10714 19.9643C2.54829 19.9643 2.01233 20.1863 1.61717 20.5815C1.222 20.9766 1 21.5126 1 22.0714C1 22.6303 1.222 23.1662 1.61717 23.5614C2.01233 23.9566 2.54829 24.1786 3.10714 24.1786ZM3.10714 43.1429C3.66599 43.1429 4.20195 42.9209 4.59712 42.5257C4.99228 42.1305 5.21429 41.5946 5.21429 41.0357C5.21429 40.4769 4.99228 39.9409 4.59712 39.5457C4.20195 39.1506 3.66599 38.9286 3.10714 38.9286C2.54829 38.9286 2.01233 39.1506 1.61717 39.5457C1.222 39.9409 1 40.4769 1 41.0357C1 41.5946 1.222 42.1305 1.61717 42.5257C2.01233 42.9209 2.54829 43.1429 3.10714 43.1429Z" stroke="#4147D5" stroke-width="2" stroke-linecap="round" stroke-linejoin="round"/>
</svg>
