<svg width="85" height="85" viewBox="0 0 85 85" fill="none" xmlns="http://www.w3.org/2000/svg">
<path d="M17.4674 15.1785C14.4482 15.1785 11.5527 16.3778 9.41777 18.5127C7.28287 20.6476 6.0835 23.5432 6.0835 26.5624V28.8392H78.9285V26.5624C78.9285 23.5432 77.7291 20.6476 75.5942 18.5127C73.4593 16.3778 70.5638 15.1785 67.5446 15.1785H17.4674ZM6.0835 58.4374V33.3928H78.9285V58.4374C78.9285 61.4566 77.7291 64.3521 75.5942 66.487C73.4593 68.6219 70.5638 69.8213 67.5446 69.8213H17.4705C14.4513 69.8213 11.5557 68.6219 9.42081 66.487C7.28591 64.3521 6.08653 61.4566 6.08653 58.4374M55.4017 50.0892C54.7979 50.0892 54.2188 50.3291 53.7918 50.756C53.3648 51.183 53.1249 51.7621 53.1249 52.366C53.1249 52.9698 53.3648 53.5489 53.7918 53.9759C54.2188 54.4029 54.7979 54.6428 55.4017 54.6428H66.0267C66.6306 54.6428 67.2097 54.4029 67.6366 53.9759C68.0636 53.5489 68.3035 52.9698 68.3035 52.366C68.3035 51.7621 68.0636 51.183 67.6366 50.756C67.2097 50.3291 66.6306 50.0892 66.0267 50.0892H55.4017Z" fill="#6E00BE"/>
</svg>
