<svg width="60" height="54" viewBox="0 0 60 54" fill="none" xmlns="http://www.w3.org/2000/svg">
<path d="M24 28.8808H14C12.9 28.8808 12 29.7808 12 30.8808V49.8808C12 52.0908 13.79 53.8808 16 53.8808H22C24.21 53.8808 26 52.0908 26 49.8808V30.8808C26 29.7808 25.1 28.8808 24 28.8808Z" fill="#ED2929"/>
<path d="M42 6.8808H13C5.83 6.8808 0 12.7108 0 19.8808C0 27.0508 5.83 32.8808 13 32.8808H42C43.1 32.8808 44 31.9808 44 30.8808V8.8808C44 7.7808 43.1 6.8808 42 6.8808Z" fill="#E5E5E5"/>
<path d="M57.6899 1.27077C56.2199 0.130771 54.3499 -0.269229 52.5399 0.180771L44.5399 2.18077C41.8699 2.85077 39.9999 5.24077 39.9999 8.00077V31.7508C39.9999 34.5108 41.8699 36.9008 44.5399 37.5708L52.5399 39.5708C53.0299 39.6908 53.5199 39.7508 54.0099 39.7508C55.3299 39.7508 56.6199 39.3108 57.6899 38.4808C59.1599 37.3308 59.9999 35.6108 59.9999 33.7508V6.00077C59.9999 4.14077 59.1599 2.42077 57.6899 1.27077ZM17.9999 25.2308C15.0499 25.2308 12.6499 22.8308 12.6499 19.8808C12.6499 16.9308 15.0499 14.5308 17.9999 14.5308C20.9499 14.5308 23.3499 16.9308 23.3499 19.8808C23.3499 22.8308 20.9499 25.2308 17.9999 25.2308ZM17.9999 17.2308C16.5399 17.2308 15.3499 18.4208 15.3499 19.8808C15.3499 21.3408 16.5399 22.5308 17.9999 22.5308C19.4599 22.5308 20.6499 21.3408 20.6499 19.8808C20.6499 18.4208 19.4599 17.2308 17.9999 17.2308Z" fill="#ED2929"/>
</svg>
