<svg width="80" height="80" viewBox="0 0 80 80" fill="none" xmlns="http://www.w3.org/2000/svg">
<path d="M60 35V63.75C60 64.5708 59.8383 65.3835 59.5242 66.1418C59.2102 66.9001 58.7498 67.5891 58.1694 68.1694C57.5891 68.7498 56.9001 69.2102 56.1418 69.5242C55.3835 69.8383 54.5708 70 53.75 70H16.25C14.5924 70 13.0027 69.3415 11.8306 68.1694C10.6585 66.9973 10 65.4076 10 63.75V26.25C10 24.5924 10.6585 23.0027 11.8306 21.8306C13.0027 20.6585 14.5924 20 16.25 20H42.4188" stroke="#0D99FF" stroke-width="1.75" stroke-linecap="round" stroke-linejoin="round"/>
<path d="M71.8656 8.32036C71.6373 8.06949 71.3604 7.86751 71.0519 7.72663C70.7433 7.58576 70.4093 7.50891 70.0702 7.50073C69.7311 7.49255 69.3938 7.55321 69.0788 7.67905C68.7638 7.80489 68.4776 7.99328 68.2374 8.23286L66.3046 10.1563C66.0704 10.3907 65.9388 10.7085 65.9388 11.0399C65.9388 11.3713 66.0704 11.6891 66.3046 11.9235L68.0765 13.6922C68.1927 13.8089 68.3307 13.9015 68.4828 13.9647C68.6348 14.0279 68.7978 14.0604 68.9624 14.0604C69.1271 14.0604 69.2901 14.0279 69.4421 13.9647C69.5942 13.9015 69.7322 13.8089 69.8484 13.6922L71.7328 11.8172C72.6859 10.8657 72.7749 9.31567 71.8656 8.32036ZM62.3968 14.0625L34.1906 42.2188C34.0196 42.3891 33.8953 42.6006 33.8296 42.8329L32.5249 46.7188C32.4937 46.8242 32.4915 46.9362 32.5185 47.0428C32.5456 47.1494 32.6009 47.2467 32.6787 47.3244C32.7565 47.4022 32.8538 47.4575 32.9604 47.4846C33.067 47.5116 33.1789 47.5094 33.2843 47.4782L37.1671 46.1735C37.3994 46.1079 37.6109 45.9836 37.7812 45.8126L65.9374 17.6032C66.1979 17.3399 66.3441 16.9845 66.3441 16.6141C66.3441 16.2437 66.1979 15.8883 65.9374 15.625L64.3828 14.0625C64.1191 13.7997 63.7621 13.6521 63.3898 13.6521C63.0175 13.6521 62.6604 13.7997 62.3968 14.0625Z" fill="#0D99FF"/>
</svg>
