<svg width="89" height="89" viewBox="0 0 89 89" fill="none" xmlns="http://www.w3.org/2000/svg">
<path d="M79.9505 9.2564C79.6965 8.9773 79.3885 8.7526 79.0452 8.59588C78.7019 8.43915 78.3304 8.35366 77.9532 8.34456C77.5759 8.33546 77.2007 8.40295 76.8502 8.54294C76.4998 8.68293 76.1814 8.89253 75.9142 9.15905L73.7639 11.2989C73.5033 11.5596 73.3569 11.9132 73.3569 12.2819C73.3569 12.6505 73.5033 13.0041 73.7639 13.2649L75.7351 15.2326C75.8644 15.3624 76.0179 15.4654 76.1871 15.5357C76.3562 15.606 76.5376 15.6422 76.7207 15.6422C76.9039 15.6422 77.0853 15.606 77.2544 15.5357C77.4236 15.4654 77.5771 15.3624 77.7064 15.2326L79.8027 13.1467C80.8631 12.0881 80.9622 10.3637 79.9505 9.2564ZM69.4165 15.6446L38.037 46.9684C37.8468 47.1579 37.7085 47.3932 37.6355 47.6516L36.184 51.9747C36.1493 52.092 36.1468 52.2165 36.1769 52.3351C36.207 52.4537 36.2686 52.5619 36.3551 52.6484C36.4416 52.7349 36.5499 52.7965 36.6684 52.8266C36.787 52.8567 36.9115 52.8542 37.0288 52.8195L41.3485 51.368C41.6069 51.295 41.8421 51.1567 42.0316 50.9665L73.3554 19.5835C73.6452 19.2906 73.8078 18.8952 73.8078 18.4832C73.8078 18.0712 73.6452 17.6758 73.3554 17.3829L71.6258 15.6446C71.3326 15.3521 70.9353 15.1879 70.5212 15.1879C70.107 15.1879 69.7098 15.3521 69.4165 15.6446Z" fill="#6E00BE"/>
<path d="M67.1568 33.6636L45.9688 54.8932C45.1499 55.714 44.1434 56.3231 43.0364 56.668L38.5342 58.1751C37.4657 58.4768 36.3361 58.4882 35.2618 58.208C34.1875 57.9279 33.2073 57.3663 32.4222 56.5813C31.6371 55.7962 31.0756 54.816 30.7955 53.7417C30.5153 52.6673 30.5267 51.5377 30.8284 50.4693L32.3355 45.9671C32.6794 44.8604 33.2873 43.854 34.1068 43.0346L55.3364 21.8432C55.531 21.6489 55.6636 21.4011 55.7174 21.1314C55.7712 20.8617 55.7438 20.582 55.6387 20.3279C55.5336 20.0737 55.3554 19.8564 55.1268 19.7035C54.8982 19.5506 54.6294 19.4689 54.3543 19.4688H18.0781C15.4964 19.4688 13.0204 20.4943 11.1949 22.3199C9.36933 24.1454 8.34375 26.6214 8.34375 29.2031V70.9219C8.34375 73.5036 9.36933 75.9796 11.1949 77.8051C13.0204 79.6307 15.4964 80.6562 18.0781 80.6562H59.7969C62.3786 80.6562 64.8546 79.6307 66.6801 77.8051C68.5057 75.9796 69.5312 73.5036 69.5312 70.9219V34.6457C69.5311 34.3706 69.4494 34.1018 69.2965 33.8732C69.1436 33.6446 68.9263 33.4664 68.6721 33.3613C68.418 33.2562 68.1383 33.2288 67.8686 33.2826C67.5989 33.3364 67.3511 33.469 67.1568 33.6636Z" fill="#6E00BE"/>
</svg>
