<?xml version="1.0" encoding="UTF-8"?>
<svg version="1.1" xmlns="http://www.w3.org/2000/svg" width="512" height="512">
<path d="M0 0 C93.72 0 187.44 0 284 0 C284 16.08300782 284 16.08300782 283.59585571 23.99041748 C283.55234777 24.89622787 283.50883982 25.80203825 283.46401346 26.73529744 C283.31991185 29.71790543 283.17097662 32.70025042 283.02197266 35.68261719 C282.91656648 37.84262764 282.81144651 40.00265207 282.70658875 42.16268921 C282.42257423 47.99362682 282.13417289 53.82433939 281.84464312 59.65500546 C281.60241765 64.54010101 281.36222531 69.42529575 281.12197816 74.31048894 C280.55459671 85.84582547 279.98350139 97.3809741 279.41015625 108.91601562 C278.82077383 120.77516558 278.2380048 132.63462762 277.65844882 144.4942615 C277.15881367 154.71319879 276.65485717 164.93191698 276.1475395 175.15047574 C275.84540243 181.23729069 275.54488496 187.32417416 275.24861526 193.41127777 C274.96957637 199.14078855 274.68509933 204.87000509 274.39663124 210.59904861 C274.29234272 212.68772903 274.18989397 214.77650235 274.08954048 216.86537552 C273.62127793 226.59063591 273.07778382 236.29205358 272.05941772 245.97735596 C271.98719014 246.69580838 271.91496255 247.4142608 271.84054625 248.15448451 C270.3442113 261.3097535 263.38692369 271.94805831 253.3828125 280.36328125 C245.06614535 286.07587721 236.59724683 289.14981419 226.60765076 289.14717102 C225.48710559 289.15268605 225.48710559 289.15268605 224.34392315 289.1583125 C221.83921979 289.16933066 219.33455794 289.17319004 216.82983398 289.17700195 C215.03430551 289.18326813 213.23877833 289.18991507 211.44325256 289.19691467 C205.54420879 289.21794321 199.6451648 289.22831753 193.74609375 289.23828125 C191.71317087 289.24232958 189.68024812 289.24644653 187.64732552 289.25063133 C178.09360264 289.26968218 168.53988747 289.28391213 158.98614925 289.2922433 C147.97041984 289.30200867 136.95489175 289.32831039 125.93923324 289.36874419 C117.41760575 289.39894609 108.89603581 289.41371614 100.37435585 289.41702431 C95.28841947 289.41937059 90.20269818 289.42827579 85.11681938 289.45348549 C80.32740069 289.47684182 75.53833755 289.48096912 70.74887657 289.47072411 C68.99740666 289.47023043 67.2459188 289.47650083 65.49450302 289.49028015 C56.0169715 289.56063241 47.71364608 289.22237742 39 285 C38.00484375 284.51917969 37.0096875 284.03835938 35.984375 283.54296875 C23.73262323 276.11052493 16.37366357 266.1395032 12.67770004 252.20122719 C11.45571512 246.42898121 11.23739949 240.6263831 10.96142578 234.74487305 C10.885406 233.31097761 10.80834888 231.87713687 10.73036385 230.44334698 C10.51791569 226.47807491 10.3209062 222.51216221 10.12641621 218.54597425 C9.90795323 214.14621309 9.67517362 209.74720156 9.44476318 205.34805298 C8.87175413 194.34134908 8.32305444 183.33348005 7.7779212 172.3253653 C7.55977181 167.92347979 7.34060239 163.52164526 7.12149346 159.11980742 C6.60482177 148.73856686 6.0901428 138.35722882 5.57666016 127.97583008 C5.04930553 117.31490269 4.51799827 106.65417713 3.98489463 95.99353582 C3.52377766 86.76907136 3.06534515 77.54447601 2.60898888 68.31977481 C2.3378645 62.84014993 2.06570294 57.36058173 1.7908287 51.88114357 C1.53328171 46.74521727 1.27910089 41.60913493 1.02742767 36.47291756 C0.93510439 34.60008101 0.84162254 32.72730113 0.74683762 30.85458755 C0.616715 28.27994092 0.49095892 25.70511369 0.36618042 23.13020325 C0.32863518 22.40752142 0.29108993 21.6848396 0.25240695 20.94025832 C-0.07831782 13.94033351 0 7.03760364 0 0 Z M67 38 C62.188431 44.11199306 61.8505428 49.27237905 61.85955811 56.82977295 C61.85658698 57.61173703 61.85361586 58.39370112 61.8505547 59.19936109 C61.84189219 61.81618652 61.84036153 64.43296607 61.83886719 67.04980469 C61.83423729 68.92754209 61.82921239 70.80527855 61.82382202 72.68301392 C61.81071273 77.7823327 61.80425595 82.88163833 61.79981136 87.98097134 C61.79687831 91.16827763 61.79277306 94.35558034 61.78830719 97.54288483 C61.77463624 107.51947982 61.76496757 117.49606661 61.7611053 127.47267032 C61.75662517 138.98134508 61.73907765 150.48990104 61.7101047 161.99853969 C61.68847526 170.89977153 61.67840034 179.80096999 61.67706418 188.70222783 C61.67601708 194.01607791 61.67012931 199.32981625 61.65224457 204.64363861 C61.63574206 209.64395859 61.633619 214.64408308 61.64238358 219.64442062 C61.64315278 221.47574004 61.63882672 223.30707007 61.62892532 225.13836288 C60.90312129 239.24870731 60.90312129 239.24870731 66.45197678 251.59543991 C71.15996397 255.70134215 74.40557325 256.35587153 80.4609375 256.27734375 C84.22460402 255.86623556 86.21790187 254.5171364 89 252 C93.811569 245.88800694 94.1494572 240.72762095 94.14044189 233.17022705 C94.14341302 232.38826297 94.14638414 231.60629888 94.1494453 230.80063891 C94.15810781 228.18381348 94.15963847 225.56703393 94.16113281 222.95019531 C94.16576271 221.07245791 94.17078761 219.19472145 94.17617798 217.31698608 C94.18928727 212.2176673 94.19574405 207.11836167 94.20018864 202.01902866 C94.20312169 198.83172237 94.20722694 195.64441966 94.21169281 192.45711517 C94.22536376 182.48052018 94.23503243 172.50393339 94.2388947 162.52732968 C94.24337483 151.01865492 94.26092235 139.51009896 94.2898953 128.00146031 C94.31152474 119.10022847 94.32159966 110.19903001 94.32293582 101.29777217 C94.32398292 95.98392209 94.32987069 90.67018375 94.34775543 85.35636139 C94.36425794 80.35604141 94.366381 75.35591692 94.35761642 70.35557938 C94.35684722 68.52425996 94.36117328 66.69292993 94.37107468 64.86163712 C95.09687871 50.75129269 95.09687871 50.75129269 89.54802322 38.40456009 C84.84003603 34.29865785 81.59442675 33.64412847 75.5390625 33.72265625 C71.77539598 34.13376444 69.78209813 35.4828636 67 38 Z M131 38 C126.188431 44.11199306 125.8505428 49.27237905 125.85955811 56.82977295 C125.85658698 57.61173703 125.85361586 58.39370112 125.8505547 59.19936109 C125.84189219 61.81618652 125.84036153 64.43296607 125.83886719 67.04980469 C125.83423729 68.92754209 125.82921239 70.80527855 125.82382202 72.68301392 C125.81071273 77.7823327 125.80425595 82.88163833 125.79981136 87.98097134 C125.79687831 91.16827763 125.79277306 94.35558034 125.78830719 97.54288483 C125.77463624 107.51947982 125.76496757 117.49606661 125.7611053 127.47267032 C125.75662517 138.98134508 125.73907765 150.48990104 125.7101047 161.99853969 C125.68847526 170.89977153 125.67840034 179.80096999 125.67706418 188.70222783 C125.67601708 194.01607791 125.67012931 199.32981625 125.65224457 204.64363861 C125.63574206 209.64395859 125.633619 214.64408308 125.64238358 219.64442062 C125.64315278 221.47574004 125.63882672 223.30707007 125.62892532 225.13836288 C124.90312129 239.24870731 124.90312129 239.24870731 130.45197678 251.59543991 C135.15996397 255.70134215 138.40557325 256.35587153 144.4609375 256.27734375 C148.22460402 255.86623556 150.21790187 254.5171364 153 252 C157.811569 245.88800694 158.1494572 240.72762095 158.14044189 233.17022705 C158.14341302 232.38826297 158.14638414 231.60629888 158.1494453 230.80063891 C158.15810781 228.18381348 158.15963847 225.56703393 158.16113281 222.95019531 C158.16576271 221.07245791 158.17078761 219.19472145 158.17617798 217.31698608 C158.18928727 212.2176673 158.19574405 207.11836167 158.20018864 202.01902866 C158.20312169 198.83172237 158.20722694 195.64441966 158.21169281 192.45711517 C158.22536376 182.48052018 158.23503243 172.50393339 158.2388947 162.52732968 C158.24337483 151.01865492 158.26092235 139.51009896 158.2898953 128.00146031 C158.31152474 119.10022847 158.32159966 110.19903001 158.32293582 101.29777217 C158.32398292 95.98392209 158.32987069 90.67018375 158.34775543 85.35636139 C158.36425794 80.35604141 158.366381 75.35591692 158.35761642 70.35557938 C158.35684722 68.52425996 158.36117328 66.69292993 158.37107468 64.86163712 C159.09687871 50.75129269 159.09687871 50.75129269 153.54802322 38.40456009 C148.84003603 34.29865785 145.59442675 33.64412847 139.5390625 33.72265625 C135.77539598 34.13376444 133.78209813 35.4828636 131 38 Z M195 38 C190.188431 44.11199306 189.8505428 49.27237905 189.85955811 56.82977295 C189.85658698 57.61173703 189.85361586 58.39370112 189.8505547 59.19936109 C189.84189219 61.81618652 189.84036153 64.43296607 189.83886719 67.04980469 C189.83423729 68.92754209 189.82921239 70.80527855 189.82382202 72.68301392 C189.81071273 77.7823327 189.80425595 82.88163833 189.79981136 87.98097134 C189.79687831 91.16827763 189.79277306 94.35558034 189.78830719 97.54288483 C189.77463624 107.51947982 189.76496757 117.49606661 189.7611053 127.47267032 C189.75662517 138.98134508 189.73907765 150.48990104 189.7101047 161.99853969 C189.68847526 170.89977153 189.67840034 179.80096999 189.67706418 188.70222783 C189.67601708 194.01607791 189.67012931 199.32981625 189.65224457 204.64363861 C189.63574206 209.64395859 189.633619 214.64408308 189.64238358 219.64442062 C189.64315278 221.47574004 189.63882672 223.30707007 189.62892532 225.13836288 C188.90312129 239.24870731 188.90312129 239.24870731 194.45197678 251.59543991 C199.15996397 255.70134215 202.40557325 256.35587153 208.4609375 256.27734375 C212.22460402 255.86623556 214.21790187 254.5171364 217 252 C221.811569 245.88800694 222.1494572 240.72762095 222.14044189 233.17022705 C222.14341302 232.38826297 222.14638414 231.60629888 222.1494453 230.80063891 C222.15810781 228.18381348 222.15963847 225.56703393 222.16113281 222.95019531 C222.16576271 221.07245791 222.17078761 219.19472145 222.17617798 217.31698608 C222.18928727 212.2176673 222.19574405 207.11836167 222.20018864 202.01902866 C222.20312169 198.83172237 222.20722694 195.64441966 222.21169281 192.45711517 C222.22536376 182.48052018 222.23503243 172.50393339 222.2388947 162.52732968 C222.24337483 151.01865492 222.26092235 139.51009896 222.2898953 128.00146031 C222.31152474 119.10022847 222.32159966 110.19903001 222.32293582 101.29777217 C222.32398292 95.98392209 222.32987069 90.67018375 222.34775543 85.35636139 C222.36425794 80.35604141 222.366381 75.35591692 222.35761642 70.35557938 C222.35684722 68.52425996 222.36117328 66.69292993 222.37107468 64.86163712 C223.09687871 50.75129269 223.09687871 50.75129269 217.54802322 38.40456009 C212.84003603 34.29865785 209.59442675 33.64412847 203.5390625 33.72265625 C199.77539598 34.13376444 197.78209813 35.4828636 195 38 Z " fill="#000000" transform="translate(114,191)"/>
<path d="M0 0 C1.81784254 -0.00457009 3.63568336 -0.0098781 5.45352173 -0.0158844 C9.25098722 -0.02478332 13.04824206 -0.02242965 16.84570312 -0.01245117 C21.68275749 -0.00097187 26.51908064 -0.02117355 31.35603905 -0.05036831 C35.10701015 -0.06882345 38.85780907 -0.0684193 42.60881424 -0.06273079 C44.3907842 -0.06257868 46.17276666 -0.06853063 47.95469284 -0.08102226 C63.94977616 -0.17736649 77.22723039 2.36573812 89.54296875 13.46484375 C98.97499552 23.34431012 103.42877686 34.96512936 103.2890625 48.43359375 C104.09370941 48.4247113 104.89835632 48.41582886 105.72738647 48.40667725 C113.34720045 48.32619926 120.96680547 48.26546198 128.58693504 48.22634506 C132.50361789 48.20555783 136.41994665 48.17740503 140.33642578 48.13183594 C144.12307796 48.0880581 147.90939171 48.06439015 151.69627762 48.05408478 C153.13384954 48.04675016 154.57140501 48.03242876 156.00883102 48.01067352 C168.28523514 47.8324287 178.08973522 49.8488767 187.2890625 58.43359375 C196.96982904 69.03313675 198.94628901 80.61725523 198.42089844 94.51416016 C197.74598574 104.34038904 192.58510168 113.70109399 185.4140625 120.30859375 C179.02978076 125.49429386 172.53945769 128.5486823 164.27011871 128.57060814 C162.74354574 128.57821995 162.74354574 128.57821995 161.18613291 128.58598554 C160.06981281 128.5864833 158.95349271 128.58698106 157.80334473 128.5874939 C156.02232243 128.59406728 156.02232243 128.59406728 154.20531988 128.60077345 C150.90825322 128.61183115 147.61123394 128.61838374 144.31415558 128.62295461 C140.75839786 128.62891679 137.20265757 128.6405252 133.64691162 128.65124512 C125.05816767 128.67575663 116.46941796 128.69039528 107.88064981 128.70330518 C105.45377773 128.7070183 103.02690622 128.71099144 100.60003471 128.71505785 C85.52205093 128.74029767 70.44406622 128.7623458 55.36606598 128.774786 C51.87425229 128.77771559 48.38243862 128.78067726 44.890625 128.78369141 C44.02277522 128.78443746 43.15492544 128.78518351 42.26077718 128.78595217 C28.21084775 128.79859827 14.16104509 128.8318119 0.11117488 128.87349324 C-14.32152891 128.91595839 -28.7541679 128.93948639 -43.18693399 128.94470656 C-51.28711867 128.94811569 -59.38710532 128.95981179 -67.48722839 128.9928093 C-74.38773186 129.02087415 -81.2879967 129.0317811 -88.1885528 129.02061383 C-91.70612085 129.01544333 -95.22318968 129.01820763 -98.74068451 129.04307938 C-102.56398628 129.06580645 -106.3860414 129.0574571 -110.20935059 129.04159546 C-111.30782491 129.05547755 -112.40629924 129.06935963 -113.53806067 129.08366239 C-124.26228563 128.97449779 -133.8425008 125.4183357 -141.66796875 117.94921875 C-150.71966707 106.80334166 -152.66835801 94.37292714 -151.7109375 80.43359375 C-150.11133326 70.30728557 -144.71930275 61.33741917 -136.796875 54.90234375 C-130.14018546 50.21523651 -124.32586098 48.30455764 -116.19824219 48.32006836 C-115.23176254 48.31984932 -115.23176254 48.31984932 -114.24575806 48.31962585 C-112.12474147 48.32032025 -110.00381367 48.32809039 -107.8828125 48.3359375 C-106.40879362 48.33780336 -104.93477412 48.33922647 -103.46075439 48.34022522 C-99.58754758 48.34403714 -95.71437847 48.3538561 -91.84118652 48.3649292 C-87.88631704 48.37517182 -83.93144144 48.37972895 -79.9765625 48.38476562 C-72.22133701 48.39547957 -64.46614254 48.41254006 -56.7109375 48.43359375 C-56.72188194 47.40733887 -56.72188194 47.40733887 -56.73304749 46.36035156 C-56.73872238 45.46155273 -56.74439728 44.56275391 -56.75024414 43.63671875 C-56.76118858 42.30108887 -56.76118858 42.30108887 -56.77235413 40.93847656 C-56.5015051 29.89187392 -49.63152327 20.47963195 -42.3984375 12.68359375 C-29.93689835 0.88963705 -16.24207588 -0.03591232 0 0 Z M-20.7109375 38.18359375 C-23.23864627 41.8076609 -23.23864627 41.8076609 -23.7109375 48.43359375 C7.3090625 48.43359375 38.3290625 48.43359375 70.2890625 48.43359375 C69.42681495 41.30871228 69.42681495 41.30871228 65.2890625 36.43359375 C60.08189858 32.69511709 55.27425462 32.31151965 48.98925781 32.27246094 C47.11140594 32.25804962 47.11140594 32.25804962 45.19561768 32.24334717 C43.83614282 32.23849785 42.47666583 32.23421935 41.1171875 32.23046875 C40.08178959 32.22622768 40.08178959 32.22622768 39.02547455 32.22190094 C35.37114585 32.2069439 31.71685626 32.19769299 28.0625 32.19335938 C24.30913222 32.18788592 20.55612924 32.16387209 16.80287552 32.13538742 C13.89787794 32.1166575 10.99296634 32.11154993 8.08791351 32.1100235 C6.70537069 32.10701875 5.32282858 32.09906484 3.94034576 32.08583832 C-9.49873462 31.73027027 -9.49873462 31.73027027 -20.7109375 38.18359375 Z " fill="#000000" transform="translate(232.7109375,31.56640625)"/>
</svg>
