<svg width="128" height="36" viewBox="0 0 128 36" fill="none" xmlns="http://www.w3.org/2000/svg">
<g clip-path="url(#clip0_849_95)">
<circle cx="16" cy="18" r="16" fill="#6E00BE"/>
<mask id="path-2-inside-1_849_95" fill="white">
<path d="M16 29C18.6652 29 21.3304 26.8953 23.0607 25.179C23.4599 24.7831 22.9792 24.2122 22.4822 24.4749C20.6013 25.469 18.0181 26.6 16 26.6C13.9819 26.6 11.3987 25.469 9.5178 24.4749C9.02076 24.2122 8.54012 24.7831 8.93926 25.179C10.6696 26.8953 13.3348 29 16 29Z"/>
</mask>
<path d="M23.0607 25.179L25.1734 27.3089V27.3089L23.0607 25.179ZM8.93926 25.179L6.82658 27.3089H6.82658L8.93926 25.179ZM9.5178 24.4749L10.9197 21.8226L10.9197 21.8226L9.5178 24.4749ZM22.4822 24.4749L21.0803 21.8226L21.0803 21.8226L22.4822 24.4749ZM23.0607 25.179L20.948 23.0491C20.1783 23.8126 19.2652 24.5953 18.3201 25.1712C17.3491 25.7627 16.5672 26 16 26V29V32C18.098 32 19.9813 31.1849 21.4419 30.2951C22.9282 29.3895 24.2129 28.2616 25.1734 27.3089L23.0607 25.179ZM16 29V26C15.4328 26 14.6509 25.7627 13.6799 25.1712C12.7348 24.5953 11.8217 23.8126 11.052 23.0491L8.93926 25.179L6.82658 27.3089C7.78708 28.2616 9.07177 29.3895 10.5581 30.2951C12.0187 31.1849 13.902 32 16 32V29ZM9.5178 24.4749L8.11593 27.1272C9.1314 27.6639 10.3827 28.2629 11.6934 28.7336C12.967 29.1911 14.4921 29.6 16 29.6V26.6V23.6C15.4899 23.6 14.7143 23.4434 13.7216 23.0868C12.7658 22.7436 11.7851 22.28 10.9197 21.8226L9.5178 24.4749ZM16 26.6V29.6C17.5079 29.6 19.033 29.1911 20.3066 28.7336C21.6173 28.2629 22.8686 27.6639 23.8841 27.1272L22.4822 24.4749L21.0803 21.8226C20.2149 22.28 19.2342 22.7436 18.2785 23.0868C17.2857 23.4434 16.5101 23.6 16 23.6V26.6ZM23.0607 25.179L25.1734 27.3089C25.7674 26.7197 26.1776 25.8995 26.2071 24.9593C26.2356 24.0551 25.905 23.2526 25.4152 22.663C24.4114 21.4547 22.6321 21.0024 21.0803 21.8226L22.4822 24.4749L23.8841 27.1272C22.8293 27.6847 21.5389 27.3865 20.7999 26.4969C20.4425 26.0667 20.1883 25.4648 20.2101 24.7708C20.2331 24.0407 20.5536 23.4403 20.948 23.0491L23.0607 25.179ZM8.93926 25.179L11.052 23.0491C11.4464 23.4403 11.7669 24.0407 11.7899 24.7708C11.8117 25.4648 11.5575 26.0667 11.2001 26.4969C10.4611 27.3865 9.17068 27.6847 8.11593 27.1272L9.5178 24.4749L10.9197 21.8226C9.36787 21.0024 7.5886 21.4547 6.58483 22.663C6.09504 23.2526 5.76443 24.0551 5.79286 24.9593C5.82241 25.8995 6.23259 26.7197 6.82658 27.3089L8.93926 25.179Z" fill="white" mask="url(#path-2-inside-1_849_95)"/>
<path d="M21.7118 11.316C21.3919 10.9939 21.3919 10.4776 21.7118 10.1555L23.4302 8.02657L23.4302 7.98961C23.8656 7.55891 24.5714 7.55891 25.0067 7.98961C25.4421 8.42031 25.4421 9.11861 25.0067 9.54931L22.982 11.316L22.9063 11.383C22.7482 11.5079 22.5512 11.5769 22.3469 11.5769C22.1085 11.5769 21.88 11.483 21.7118 11.316ZM8.66656 17.1852C8.66656 15.2894 9.42776 13.4713 10.7827 12.1308C12.1376 10.7903 13.9753 10.0372 15.8915 10.0372C19.8817 10.0372 23.1164 13.2375 23.1164 17.1852C23.1164 21.133 19.8817 24.3333 15.8915 24.3333C11.9013 24.3333 8.66656 21.133 8.66656 17.1852Z" fill="white"/>
</g>
<path d="M41.512 27V10.2H44.992V27H41.512ZM47.5951 27V14.496H50.8831V15.528C51.8271 14.68 52.9951 14.256 54.3871 14.256C55.3631 14.256 56.2191 14.472 56.9551 14.904C57.7071 15.32 58.2911 15.904 58.7071 16.656C59.1231 17.392 59.3311 18.256 59.3311 19.248V27H56.0431V19.728C56.0431 18.912 55.8111 18.272 55.3471 17.808C54.8831 17.328 54.2511 17.088 53.4511 17.088C52.8911 17.088 52.3951 17.2 51.9631 17.424C51.5311 17.632 51.1711 17.936 50.8831 18.336V27H47.5951ZM63.1501 27V17.232H60.3661V14.496H63.1501V13.296C63.1501 11.888 63.5581 10.816 64.3741 10.08C65.1901 9.328 66.3661 8.952 67.9021 8.952C68.2381 8.952 68.5821 8.968 68.9341 9C69.2861 9.032 69.5901 9.088 69.8461 9.168V11.928C69.5421 11.864 69.2781 11.816 69.0541 11.784C68.8301 11.752 68.5821 11.736 68.3101 11.736C67.6861 11.736 67.2141 11.872 66.8941 12.144C66.5901 12.4 66.4381 12.808 66.4381 13.368V14.496H69.8461V17.232H66.4381V27H63.1501ZM71.326 27V10.2L74.614 9.648V27H71.326ZM81.7934 27.24C80.8334 27.24 79.9774 27.032 79.2254 26.616C78.4894 26.184 77.9054 25.592 77.4734 24.84C77.0574 24.088 76.8494 23.224 76.8494 22.248V14.496H80.1374V21.768C80.1374 22.568 80.3694 23.208 80.8334 23.688C81.3134 24.168 81.9534 24.408 82.7534 24.408C83.2974 24.408 83.7854 24.304 84.2174 24.096C84.6654 23.872 85.0334 23.56 85.3214 23.16V14.496H88.6094V27H85.3214V25.992C84.3614 26.824 83.1854 27.24 81.7934 27.24ZM97.0519 27.24C95.8039 27.24 94.6679 26.952 93.6439 26.376C92.6359 25.8 91.8359 25.024 91.2439 24.048C90.6519 23.072 90.3559 21.976 90.3559 20.76C90.3559 19.544 90.6359 18.448 91.1959 17.472C91.7719 16.496 92.5479 15.72 93.5239 15.144C94.4999 14.568 95.5879 14.28 96.7879 14.28C97.9879 14.28 99.0519 14.576 99.9799 15.168C100.908 15.76 101.636 16.56 102.164 17.568C102.708 18.576 102.98 19.72 102.98 21V21.864H93.7159C93.8599 22.36 94.0919 22.808 94.4119 23.208C94.7479 23.608 95.1559 23.92 95.6359 24.144C96.1319 24.368 96.6599 24.48 97.2199 24.48C97.7799 24.48 98.2919 24.392 98.7559 24.216C99.2359 24.04 99.6439 23.792 99.9799 23.472L102.14 25.44C101.372 26.064 100.58 26.52 99.7639 26.808C98.9639 27.096 98.0599 27.24 97.0519 27.24ZM93.6679 19.512H99.7399C99.6279 19.016 99.4199 18.584 99.1159 18.216C98.8279 17.832 98.4759 17.536 98.0599 17.328C97.6599 17.104 97.2119 16.992 96.7159 16.992C96.2039 16.992 95.7399 17.096 95.3239 17.304C94.9079 17.512 94.5559 17.808 94.2679 18.192C93.9959 18.56 93.7959 19 93.6679 19.512ZM104.754 27V14.496H108.042V15.528C108.986 14.68 110.154 14.256 111.546 14.256C112.522 14.256 113.378 14.472 114.114 14.904C114.866 15.32 115.45 15.904 115.866 16.656C116.282 17.392 116.49 18.256 116.49 19.248V27H113.202V19.728C113.202 18.912 112.97 18.272 112.506 17.808C112.042 17.328 111.41 17.088 110.61 17.088C110.05 17.088 109.554 17.2 109.122 17.424C108.69 17.632 108.33 17.936 108.042 18.336V27H104.754ZM124.317 27.192C122.925 27.192 121.869 26.88 121.149 26.256C120.445 25.616 120.093 24.688 120.093 23.472V17.232H117.525V14.496H120.093V11.304L123.381 10.56V14.496H126.957V17.232H123.381V22.8C123.381 23.376 123.509 23.792 123.765 24.048C124.021 24.288 124.469 24.408 125.109 24.408C125.429 24.408 125.717 24.392 125.973 24.36C126.245 24.312 126.541 24.232 126.861 24.12V26.832C126.525 26.944 126.101 27.032 125.589 27.096C125.093 27.16 124.669 27.192 124.317 27.192Z" fill="white"/>
<defs>
<clipPath id="clip0_849_95">
<rect width="32" height="32" fill="white" transform="translate(0 2)"/>
</clipPath>
</defs>
</svg>
