<svg width="61" height="61" viewBox="0 0 61 61" fill="none" xmlns="http://www.w3.org/2000/svg">
<path fill-rule="evenodd" clip-rule="evenodd" d="M17.032 6.66652C19.6964 4.00297 23.0907 2.18926 26.7858 1.45471C30.4809 0.720165 34.3108 1.09777 37.7913 2.53978C41.2718 3.98178 44.2466 6.42344 46.3395 9.55601C48.4324 12.6886 49.5494 16.3714 49.5494 20.1388C49.5494 22.5047 49.9328 24.7661 50.5515 27.1669C50.7084 27.6549 50.8783 28.1138 51.0613 28.5437C51.3097 29.1232 51.8108 29.6243 52.7693 30.243C53.144 30.4783 53.5275 30.7005 53.9632 30.9489L54.3684 31.1842C54.9523 31.5197 55.6015 31.9118 56.2245 32.3737C58.4815 34.0424 59.3094 36.6132 59.1961 38.9312C59.0872 41.1838 58.0763 43.5367 56.1897 44.9571C56.068 45.0509 55.9415 45.1381 55.8106 45.2185C55.4945 45.4211 55.1655 45.603 54.8259 45.7632C53.5268 46.3564 52.1724 46.8205 50.7825 47.1487C46.9918 48.1073 40.7131 49.0179 30.5 49.0179C20.2868 49.0179 14.0082 48.1073 10.2175 47.1487C8.8275 46.8205 7.47317 46.3564 6.17404 45.7632C5.72831 45.5528 5.30123 45.305 4.8974 45.0224L4.81025 44.9571C2.92361 43.5367 1.91711 41.1838 1.80382 38.9312C1.69054 36.6132 2.5184 34.0424 4.7754 32.3737C5.37364 31.9461 5.99315 31.5491 6.63154 31.1842L7.03675 30.9489C7.47247 30.7005 7.8559 30.4783 8.23061 30.2387C9.18918 29.6287 9.69025 29.1232 9.93425 28.5437C10.8188 26.4697 11.4505 23.7334 11.4505 20.1344C11.4505 15.0845 13.4592 10.2437 17.0277 6.67087M25.437 52.2248C25.0227 52.0833 24.5753 52.0698 24.1533 52.1862C23.7312 52.3026 23.3541 52.5435 23.0709 52.8775C22.7878 53.2114 22.6118 53.6229 22.566 54.0583C22.5202 54.4937 22.6066 54.9328 22.814 55.3184C23.5585 56.7083 24.6661 57.8701 26.0189 58.6801C27.3717 59.4901 28.9189 59.9179 30.4956 59.9179C32.0723 59.9179 33.6195 59.4901 34.9723 58.6801C36.3251 57.8701 37.4327 56.7083 38.1773 55.3184C38.384 54.9332 38.47 54.4947 38.4242 54.06C38.3784 53.6252 38.2029 53.2143 37.9205 52.8806C37.638 52.547 37.2618 52.306 36.8405 52.189C36.4193 52.0721 35.9727 52.0845 35.5586 52.2248C34.4519 52.5995 32.8223 52.8871 30.4956 52.8871C28.1689 52.8871 26.5437 52.5995 25.437 52.2248Z" fill="#6E00BE"/>
</svg>
