<svg width="85" height="85" viewBox="0 0 85 85" fill="none" xmlns="http://www.w3.org/2000/svg">
<path d="M17.4675 15.1785C14.4483 15.1785 11.5528 16.3778 9.41789 18.5127C7.28299 20.6476 6.08362 23.5432 6.08362 26.5624V28.8392H78.9286V26.5624C78.9286 23.5432 77.7292 20.6476 75.5943 18.5127C73.4594 16.3778 70.5639 15.1785 67.5447 15.1785H17.4675ZM6.08362 58.4374V33.3928H78.9286V58.4374C78.9286 61.4566 77.7292 64.3521 75.5943 66.487C73.4594 68.6219 70.5639 69.8213 67.5447 69.8213H17.4706C14.4514 69.8213 11.5558 68.6219 9.42093 66.487C7.28603 64.3521 6.08665 61.4566 6.08665 58.4374M55.4018 50.0892C54.798 50.0892 54.2189 50.3291 53.7919 50.756C53.3649 51.183 53.125 51.7621 53.125 52.366C53.125 52.9698 53.3649 53.5489 53.7919 53.9759C54.2189 54.4029 54.798 54.6428 55.4018 54.6428H66.0268C66.6307 54.6428 67.2098 54.4029 67.6368 53.9759C68.0637 53.5489 68.3036 52.9698 68.3036 52.366C68.3036 51.7621 68.0637 51.183 67.6368 50.756C67.2098 50.3291 66.6307 50.0892 66.0268 50.0892H55.4018Z" fill="white"/>
</svg>
