<?xml version="1.0" encoding="UTF-8"?>
<svg version="1.1" xmlns="http://www.w3.org/2000/svg" width="512" height="512">
<path d="M0 0 C0.82612793 0.18191895 1.65225586 0.36383789 2.50341797 0.55126953 C27.24278562 6.04290857 51.54809736 17.01745397 72 32 C73.56041016 33.13501953 73.56041016 33.13501953 75.15234375 34.29296875 C83.2816542 40.32141891 90.6916426 47.01026309 98 54 C98.67804688 54.63679688 99.35609375 55.27359375 100.0546875 55.9296875 C128.96604206 83.77518567 147.45099947 123.8487543 154 163 C154.33644531 164.89492188 154.33644531 164.89492188 154.6796875 166.828125 C162.37753876 218.9204335 148.6133474 272.78171663 117.625 315.125 C106.50002597 329.5658834 94.44520242 342.80216867 80 354 C79.4524707 354.42925781 78.90494141 354.85851562 78.34082031 355.30078125 C68.47245508 362.99156785 58.12128884 369.28496025 47 375 C45.92830566 375.55131592 45.92830566 375.55131592 44.83496094 376.11376953 C17.27163576 390.09819681 -12.82192465 396.4436549 -43.625 396.3125 C-44.51151245 396.31067719 -45.3980249 396.30885437 -46.31140137 396.30697632 C-59.10189923 396.26264709 -71.48748012 395.86984401 -84 393 C-84.80131348 392.82839355 -85.60262695 392.65678711 -86.42822266 392.47998047 C-121.93894088 384.80736149 -153.91984864 368.34475801 -180.34375 343.4453125 C-182.94309526 340.99307181 -182.94309526 340.99307181 -185.64453125 338.8984375 C-189.24631555 335.99550687 -192.02274253 332.52386333 -195 329 C-195.7425 328.15695312 -196.485 327.31390625 -197.25 326.4453125 C-223.58602591 295.97317996 -238.8904217 258.71145156 -244 219 C-244.13277344 217.98164063 -244.26554687 216.96328125 -244.40234375 215.9140625 C-249.7726309 164.56528952 -234.17371781 111.43958289 -201.984375 71.16015625 C-199.40592268 68.02860863 -196.71931536 65.00976855 -194 62 C-193.20851562 61.08863281 -192.41703125 60.17726563 -191.6015625 59.23828125 C-187.04801429 54.03977656 -182.30548562 49.41650942 -177 45 C-176.16339844 44.26394531 -175.32679688 43.52789062 -174.46484375 42.76953125 C-150.06572954 21.65943106 -120.43415849 7.1120571 -89 0 C-88.15211914 -0.19609863 -87.30423828 -0.39219727 -86.43066406 -0.59423828 C-58.73353096 -6.71081354 -27.58855438 -6.49802026 0 0 Z " fill="#000000" transform="translate(301,60)"/>
<path d="M0 0 C36.61844428 -1.39426608 74.12054707 7.23625947 101.60400391 32.69189453 C112.46301979 43.81749836 118.36212014 56.05948992 118.20166016 71.52783203 C117.55024909 82.67419913 112.68960007 89.77692185 104.80322266 97.32470703 C73.05327526 124.15785862 8.50354472 118.48625001 -29.82214355 115.64970398 C-53.22619855 113.6720559 -80.4115861 110.47880563 -97.20458984 92.33251953 C-104.84090829 83.0433183 -105.97692751 72.85786964 -105.00927734 61.13720703 C-101.22740442 44.26919426 -88.48835746 30.15075107 -74.26269531 21.015625 C-64.65766335 15.07819539 -54.76225053 10.55195227 -44.00927734 7.13720703 C-43.28401855 6.90517578 -42.55875977 6.67314453 -41.81152344 6.43408203 C-28.00727686 2.13796898 -14.3951516 0.6563423 0 0 Z " fill="#FEFEFE" transform="translate(252.00927734375,249.86279296875)"/>
<path d="M0 0 C1.46421387 0.01244751 1.46421387 0.01244751 2.95800781 0.02514648 C17.0305027 0.35566897 27.11949826 5.94737638 36.875 16 C49.58158381 30.73423016 51.54137262 47.64879342 50.1875 66.4375 C49.38283898 70.80441709 48.16007355 74.47288671 46.1875 78.4375 C45.836875 79.21480469 45.48625 79.99210937 45.125 80.79296875 C38.21654377 94.72981968 26.48151781 103.31207361 12.1875 108.4375 C2.12361421 111.72281809 -10.50646356 109.92457606 -19.8125 105.4375 C-33.44957397 97.66215206 -42.94459265 86.32333225 -47.48046875 71.23828125 C-48.97813484 65.45425939 -49.31314801 59.95545864 -49.25 54 C-49.24242676 52.99300049 -49.23485352 51.98600098 -49.22705078 50.94848633 C-49.06257118 43.52589415 -48.19007026 37.14003039 -44.8125 30.4375 C-44.38839844 29.58542969 -43.96429688 28.73335937 -43.52734375 27.85546875 C-36.68518293 15.44809635 -26.50015088 5.85523803 -13.0769043 1.02856445 C-8.75938084 -0.09841391 -4.43797283 -0.04837131 0 0 Z " fill="#FDFDFD" transform="translate(257.8125,122.5625)"/>
</svg>
